# xmcd
#
# Track frame offsets: 
#        150
#        15462
#        28202
#        41359
#        56710
#        73470
#        88092
#        103645
#        117203
#        132671
#        147531
#        162222
#        176504
#
# Disc length: 2567 seconds
#
# Revision: 0
# Processed by: cddbd v1.5.1PL2 Copyright (c) Steve Scherf et al.
# Submitted via: ExactAudioCopy v0.95a4
#
DISCID=bd0a050d
DTITLE=Sweetbox - Adagio
DYEAR=2004
DGENRE=R&B
TTITLE0=Beautiful
TTITLE1=Life is Cool
TTITLE2=Somewhere
TTITLE3=Hate Without Frontiers
TTITLE4=Testimony
TTITLE5=Far Away
TTITLE6=Liberty
TTITLE7=Lacrimosa
TTITLE8=Sorry
TTITLE9=I'll Be There
TTITLE10=Chyna Girl
TTITLE11=Everybody
TTITLE12=I Don't Wanna Be
EXTD=
EXTT0=
EXTT1=
EXTT2=
EXTT3=
EXTT4=
EXTT5=
EXTT6=
EXTT7=
EXTT8=
EXTT9=
EXTT10=
EXTT11=
EXTT12=
PLAYORDER=
